<?xml version="1.0" encoding="utf-8"?>
<!-- Generator: Adobe Illustrator 25.0.1, SVG Export Plug-In . SVG Version: 6.00 Build 0)  -->
<svg version="1.0" id="katman_1" xmlns="http://www.w3.org/2000/svg" xmlns:xlink="http://www.w3.org/1999/xlink" x="0px" y="0px"
	 viewBox="0 0 800 600" style="enable-background:new 0 0 800 600;" xml:space="preserve">
<style type="text/css">
	.st0{fill:#FFFFFF;}
	.st1{fill:none;stroke:#000000;stroke-width:11.0131;stroke-opacity:8.000000e-02;}
	.st2{fill-rule:evenodd;clip-rule:evenodd;fill:#2453A6;}
	.st3{fill-rule:evenodd;clip-rule:evenodd;fill:#FFFFFF;}
	.st4{filter:url(#Adobe_OpacityMaskFilter);}
	.st5{mask:url(#sydney-c_1_);fill-rule:evenodd;clip-rule:evenodd;fill:url(#SVGID_1_);}
	.st6{fill-rule:evenodd;clip-rule:evenodd;fill:#1755A8;}
	.st7{fill-rule:evenodd;clip-rule:evenodd;fill:#3EE2F7;}
</style>
<g transform="translate(1 1)">
	<path class="st0" d="M244.5,100.8h308.4c24.3,0,44.1,19.7,44.1,44.1v308.4c0,24.3-19.7,44.1-44.1,44.1H244.5
		c-24.3,0-44.1-19.7-44.1-44.1V144.8C200.5,120.5,220.2,100.8,244.5,100.8z"/>
	<path class="st1" d="M244.5,95.2h308.4c27.4,0,49.6,22.2,49.6,49.6v308.4c0,27.4-22.2,49.6-49.6,49.6H244.5
		c-27.4,0-49.6-22.2-49.6-49.6V144.8C195,117.4,217.2,95.2,244.5,95.2z"/>
	<path class="st2" d="M398.6,175.1c-68.8,0-124.6,54.9-124.6,122.5c0,20.5,5.2,39.9,14.2,56.9l-34.8,21.8l0,0
		c-2.1,1.3-3.5,3.6-3.5,6.2c0,3.8,2.9,6.9,6.7,7.3l0,0.1l65.8,4.8c21,16,47.4,25.5,76,25.5c0,0,0.1,0,0.1,0c0,0,0.1,0,0.1,0
		c28.6,0,55-9.5,76-25.5l65.8-4.8l0-0.1c3.7-0.4,6.7-3.5,6.7-7.3c0-2.6-1.4-4.9-3.5-6.2l0,0L509,354.3c9-17,14.1-36.2,14.1-56.7
		C523.2,229.9,467.4,175.1,398.6,175.1z"/>
	<path class="st3" d="M403.1,404.6c0.6-0.1,1.2-0.1,1.7-0.2c1-0.1,2-0.2,3-0.3c0.6-0.1,1.2-0.2,1.8-0.3c1-0.1,1.9-0.3,2.9-0.4
		c0.6-0.1,1.2-0.2,1.7-0.3c0.9-0.2,1.9-0.4,2.8-0.6c0.6-0.1,1.1-0.3,1.7-0.4c0.9-0.2,1.9-0.4,2.8-0.7c0.5-0.1,1-0.3,1.6-0.5
		c0.9-0.3,1.9-0.5,2.8-0.8c0.5-0.2,1-0.3,1.5-0.5c0.9-0.3,1.9-0.6,2.8-1c0.5-0.2,0.9-0.4,1.4-0.5c0.9-0.4,1.9-0.7,2.8-1.1
		c0.4-0.2,0.8-0.4,1.3-0.5c0.9-0.4,1.9-0.8,2.8-1.3c0.4-0.2,0.8-0.4,1.2-0.6c0.9-0.5,1.9-0.9,2.8-1.4c0.4-0.2,0.7-0.4,1.1-0.6
		c0.9-0.5,1.9-1,2.8-1.5c0.3-0.2,0.6-0.4,1-0.6c0.9-0.6,1.8-1.1,2.7-1.7c0.3-0.2,0.6-0.4,0.9-0.6c0.9-0.6,1.8-1.2,2.7-1.8
		c0.3-0.2,0.5-0.4,0.8-0.6c0.9-0.6,1.7-1.3,2.6-2c0.3-0.2,0.5-0.4,0.8-0.6c0.8-0.7,1.7-1.4,2.5-2.1c0.1-0.1,0.2-0.1,0.2-0.2
		l50.4-4.3l-31.7-20c0-0.1,0-0.1,0.1-0.2c0.6-1.2,2.4-5,2.9-6.2c0-0.1,0.1-0.2,0.1-0.2c1.6-4.1,2.8-8.4,3.5-12.9
		c0.7-3.8,1-7.7,1-11.7c0-44-41.6-79.6-93-79.6s-93,35.7-93,79.6c0,4,0.4,7.9,1,11.7c0.2,1,0.4,1.9,0.6,2.9c0.1,0.3,0.1,0.6,0.2,0.9
		c0.2,0.9,0.4,1.7,0.7,2.6c0.1,0.4,0.2,0.7,0.3,1.1c0.2,0.8,0.5,1.6,0.8,2.4c0.1,0.4,0.2,0.8,0.4,1.2c0.3,0.8,0.6,1.6,0.9,2.3
		c0.2,0.4,0.3,0.8,0.5,1.2c0.3,0.8,0.6,1.5,1,2.3c0.2,0.4,0.4,0.8,0.5,1.2c0.4,0.8,0.7,1.5,1.1,2.2c0.2,0.4,0.4,0.7,0.6,1.1
		c0.4,0.7,0.8,1.5,1.2,2.2c0.2,0.3,0.4,0.6,0.6,1c0.5,0.8,0.9,1.5,1.4,2.3c0.1,0.2,0.3,0.5,0.5,0.7c1.8,2.7,3.8,5.3,5.9,7.8
		c0.1,0.1,0.2,0.3,0.3,0.4c0.6,0.6,1.1,1.3,1.7,1.9c0.3,0.3,0.6,0.7,0.9,1c0.5,0.6,1.1,1.1,1.7,1.7c0.4,0.4,0.7,0.7,1.1,1.1
		c0.5,0.5,1.1,1,1.7,1.5c0.4,0.4,0.8,0.8,1.3,1.1c0.6,0.5,1.1,1,1.7,1.4c0.5,0.4,0.9,0.8,1.4,1.1c0.6,0.5,1.1,0.9,1.7,1.3
		c0.5,0.4,1,0.7,1.5,1.1c0.6,0.4,1.2,0.8,1.7,1.2c0.5,0.4,1.1,0.7,1.6,1.1c0.6,0.4,1.2,0.8,1.8,1.1c0.6,0.4,1.2,0.7,1.7,1.1
		c0.6,0.3,1.2,0.7,1.8,1c0.6,0.4,1.3,0.7,1.9,1.1c0.6,0.3,1.1,0.6,1.7,0.9c0.9,0.5,1.9,0.9,2.8,1.4c0.6,0.3,1.3,0.6,1.9,0.9
		c0.9,0.4,1.8,0.8,2.7,1.2c0.5,0.2,1.1,0.4,1.6,0.6c0.8,0.3,1.6,0.6,2.3,0.9c0.6,0.2,1.2,0.4,1.7,0.6c0.8,0.3,1.5,0.5,2.3,0.8
		c0.6,0.2,1.2,0.4,1.8,0.6c0.8,0.2,1.5,0.5,2.3,0.7c0.6,0.2,1.2,0.3,1.9,0.5c0.8,0.2,1.6,0.4,2.4,0.6c0.6,0.1,1.3,0.3,1.9,0.4
		c0.8,0.2,1.6,0.3,2.4,0.5c0.6,0.1,1.3,0.2,1.9,0.3c0.8,0.1,1.7,0.3,2.5,0.4c0.6,0.1,1.2,0.2,1.9,0.3c0.9,0.1,1.8,0.2,2.7,0.3
		c0.6,0.1,1.2,0.1,1.8,0.2c1,0.1,2,0.1,3,0.2c0.5,0,1,0.1,1.5,0.1c1.5,0.1,3,0.1,4.6,0.1c1.6,0,3.2,0,4.8-0.1c0.5,0,1-0.1,1.5-0.1
		C400.9,404.7,402,404.7,403.1,404.6z"/>
	<g transform="translate(10 22)">
		<defs>
			<filter id="Adobe_OpacityMaskFilter" filterUnits="userSpaceOnUse" x="291.4" y="315" width="209.1" height="68">
				<feColorMatrix  type="matrix" values="1 0 0 0 0  0 1 0 0 0  0 0 1 0 0  0 0 0 1 0"/>
			</filter>
		</defs>
		<mask maskUnits="userSpaceOnUse" x="291.4" y="315" width="209.1" height="68" id="sydney-c_1_">
			<g class="st4">
				<path id="sydney-a_1_" class="st3" d="M500.5,354.5l-50.4,4.3c-16.9,14.9-40.6,24.2-66.7,24.2c-46.7,0-85.4-29.5-92-68
					c21.4,23.3,54.7,38.2,92,38.2c37.3,0,70.6-15,92-38.2c-1,5.9-4.2,14.1-6.6,19.5L500.5,354.5z"/>
			</g>
		</mask>
		
			<linearGradient id="SVGID_1_" gradientUnits="userSpaceOnUse" x1="11.8983" y1="516.5599" x2="11.8983" y2="527.573" gradientTransform="matrix(18.987 0 0 -6.1719 170.0758 3571.1523)">
			<stop  offset="0" style="stop-color:#3DE2F6"/>
			<stop  offset="1" style="stop-color:#FFFFFF"/>
		</linearGradient>
		<path class="st5" d="M500.5,354.5l-31.7-20c2.4-5.4,5.6-13.6,6.6-19.5c-21.4,23.3-54.7,38.2-92,38.2c-37.3,0-70.6-15-92-38.2
			c6.6,38.4,45.3,68,92,68c26.2,0,49.8-9.3,66.7-24.2L500.5,354.5z"/>
	</g>
	<path class="st6" d="M371,308.6c0,8.2-6.7,14.8-15.1,14.8c-8.3,0-15-6.6-15-14.8c0-8.2,6.7-14.8,15-14.8
		C364.3,293.8,371,300.4,371,308.6z M446.4,308.6c0,8.2-6.7,14.8-15,14.8c-8.3,0-15.1-6.6-15.1-14.8c0-8.2,6.7-14.8,15.1-14.8
		C439.6,293.8,446.4,300.4,446.4,308.6z"/>
	<path class="st7" d="M378.9,341.4c0.3,7.9,6.9,14.3,15,14.3c8.1,0,14.8-6.4,15-14.3H378.9z"/>
</g>
</svg>
